<svg width="24" height="24" viewBox="0 0 24 24" fill="none" xmlns="http://www.w3.org/2000/svg">
<path fill-rule="evenodd" clip-rule="evenodd" d="M4.23099 9.05759C4.23099 6.92058 5.07991 4.8711 6.591 3.36001C8.10209 1.84892 10.1516 1 12.2886 1C14.4256 1 16.4751 1.84892 17.9861 3.36001C19.4972 4.8711 20.3462 6.92058 20.3462 9.05759V13.3903L22.4434 17.5848C22.54 17.7779 22.5856 17.9924 22.5759 18.208C22.5662 18.4237 22.5015 18.6333 22.388 18.8169C22.2745 19.0005 22.116 19.152 21.9274 19.2571C21.7389 19.3622 21.5266 19.4174 21.3108 19.4173H16.7479C16.4918 20.4052 15.915 21.2802 15.1079 21.9047C14.3008 22.5293 13.3091 22.8682 12.2886 22.8682C11.268 22.8682 10.2764 22.5293 9.46927 21.9047C8.66217 21.2802 8.08532 20.4052 7.82928 19.4173H3.26638C3.05053 19.4174 2.83825 19.3622 2.64971 19.2571C2.46116 19.152 2.30262 19.0005 2.18913 18.8169C2.07564 18.6333 2.01098 18.4237 2.00128 18.208C1.99158 17.9924 2.03717 17.7779 2.13371 17.5848L4.23099 13.3903V9.05759ZM10.2949 19.4173C10.497 19.7673 10.7876 20.0579 11.1375 20.2599C11.4875 20.462 11.8845 20.5683 12.2886 20.5683C12.6927 20.5683 13.0896 20.462 13.4396 20.2599C13.7896 20.0579 14.0802 19.7673 14.2823 19.4173H10.2949ZM12.2886 3.30217C10.7621 3.30217 9.29823 3.90854 8.21888 4.98789C7.13953 6.06724 6.53316 7.53115 6.53316 9.05759V13.3903C6.53313 13.7475 6.44998 14.0998 6.29028 14.4193L4.94351 17.1152H19.6348L18.288 14.4193C18.1279 14.0999 18.0444 13.7476 18.044 13.3903V9.05759C18.044 7.53115 17.4376 6.06724 16.3583 4.98789C15.2789 3.90854 13.815 3.30217 12.2886 3.30217Z" fill="#292A3A"/>
</svg>
