<svg width="24" height="24" viewBox="0 0 24 24" fill="none" xmlns="http://www.w3.org/2000/svg">
<path d="M15.0633 4.84218C15.3271 4.22566 15.0423 3.50326 14.3959 3.32474C12.7115 2.85955 10.9187 2.89256 9.23888 3.43401C7.17177 4.10031 5.41533 5.49162 4.29353 7.35131C3.17173 9.211 2.76025 11.4136 3.13498 13.5529C3.50972 15.6922 4.64539 17.6238 6.33253 18.9914C8.01967 20.3591 10.1445 21.0705 12.315 20.9945C14.4855 20.9185 16.5553 20.0602 18.1426 18.5779C19.73 17.0955 20.7277 15.0892 20.9519 12.929C21.1341 11.1735 20.7954 9.41265 19.9918 7.86099C19.6834 7.26551 18.9177 7.13632 18.3691 7.52202C17.8205 7.90772 17.7004 8.6623 17.9787 9.27243C18.4617 10.3312 18.658 11.5064 18.5364 12.6783C18.3727 14.2557 17.6442 15.7206 16.4851 16.8029C15.3261 17.8853 13.8148 18.512 12.23 18.5675C10.6451 18.623 9.09369 18.1035 7.8618 17.1049C6.62991 16.1063 5.80067 14.6959 5.52705 13.1339C5.25343 11.5718 5.55388 9.96357 6.37299 8.60568C7.19209 7.24779 8.47459 6.2319 9.98392 5.74539C11.1053 5.38393 12.2957 5.3328 13.4315 5.58629C14.086 5.73236 14.7994 5.4587 15.0633 4.84218Z" fill="#292A3A"/>
</svg>
